<?xml version="1.0" encoding="utf-8"?>
<!-- Generator: Adobe Illustrator 16.0.0, SVG Export Plug-In . SVG Version: 6.00 Build 0)  -->
<!DOCTYPE svg PUBLIC "-//W3C//DTD SVG 1.1//EN" "http://www.w3.org/Graphics/SVG/1.1/DTD/svg11.dtd">
<svg version="1.1" id="Layer_1" xmlns="http://www.w3.org/2000/svg" xmlns:xlink="http://www.w3.org/1999/xlink" x="0px" y="0px"
	 width="435px" height="435px" viewBox="0 0 435 435" enable-background="new 0 0 435 435" xml:space="preserve">
<g>
	<path fill="#FFFFFF" d="M398.127,242.11c0.714-4.648,1.016-9.351,1.338-14.04c11.433-2.94,23.037-6.547,34.261-10.819
		c0.026-6.371-0.37-12.729-0.902-19.061c-11.826-3.881-23.533-6.997-35.483-9.292c-0.652-4.655-1.763-9.23-2.732-13.832
		c-1.244-4.535-2.341-9.11-3.889-13.558c9.756-6.909,19.082-14.363,28.11-22.41c-2.3-5.921-4.83-11.781-7.711-17.453
		c-12.312,0.552-24.543,1.958-36.412,4.05c-2.428-4.022-4.844-8.066-7.604-11.875c-2.63-3.901-5.556-7.589-8.456-11.295
		c6.452-9.864,12.562-20.306,18.024-31.07c-4.299-4.696-8.841-9.145-13.489-13.483c-11.391,5.14-22.114,10.685-32.503,17.049
		c-3.633-2.988-7.509-5.665-11.345-8.376c-3.949-2.563-7.885-5.127-12.002-7.408c2.557-11.707,4.36-23.399,5.652-35.517
		c-5.72-2.779-11.513-5.39-17.446-7.671c-8.714,8.699-16.827,18.024-24.175,27.524c-4.5-1.372-9.028-2.644-13.616-3.667
		c-4.582-1.056-9.204-1.944-13.859-2.617c-1.858-11.72-4.374-23.521-7.59-35.134c-6.338-0.633-12.716-0.834-19.068-0.854
		c-4.979,11.323-9.149,22.815-12.541,34.448c-4.695,0.256-9.372,0.867-14.028,1.5c-4.648,0.692-9.278,1.521-13.859,2.598
		c-6-10.396-12.535-20.212-19.747-30.055c-6.076,1.81-12.138,3.733-18.046,6.075c-0.598,12.259-0.296,24.679,0.654,36.614
		c-4.212,2.079-8.47,4.091-12.521,6.486c-4.145,2.233-8.074,4.83-12.029,7.373c-9.205-7.32-19.101-14.444-29.275-20.823
		c-5.079,3.828-9.93,7.96-14.673,12.198c4.037,11.787,8.599,23.01,13.968,33.923c-3.31,3.344-6.331,6.957-9.372,10.542
		c-2.948,3.667-5.827,7.381-8.492,11.256c-11.417-3.618-22.882-6.472-34.857-8.887c-3.271,5.443-6.405,10.973-9.231,16.665
		c7.919,9.5,16.355,18.389,25.203,26.604c-1.823,4.339-3.458,8.746-4.925,13.214c-1.413,4.486-2.852,8.975-3.875,13.563
		c-11.902,0.753-23.81,2.173-35.692,4.292c-1.174,6.251-2.073,12.568-2.618,18.906c10.765,6.002,21.913,11.235,33.109,15.689
		c-0.047,4.697-0.115,9.413,0.222,14.103c0.202,4.702,0.727,9.371,1.278,14.048c-10.758,5.005-21.304,10.649-31.719,16.935
		c1.262,6.217,2.651,12.399,4.407,18.495c12.201,1.688,24.528,2.556,36.53,2.698c1.642,4.399,3.31,8.808,5.289,13.072
		c1.843,4.333,4.05,8.491,6.243,12.649c-8.181,8.51-16.167,17.681-23.468,27.222c3.331,5.422,6.997,10.638,10.792,15.744
		c12.077-2.888,23.724-6.439,35.066-10.753c3.015,3.614,6.337,6.95,9.641,10.294c3.344,3.304,6.816,6.479,10.422,9.507
		c-4.628,10.994-8.564,22.203-12.056,33.896c5.125,3.762,10.348,7.374,15.75,10.726c10.206-7.07,19.787-14.567,28.816-22.674
		c4.138,2.232,8.397,4.225,12.696,6.136c4.339,1.803,8.673,3.641,13.153,5.095c-0.364,11.94-0.028,23.87,0.956,35.945
		c6.123,1.709,12.312,3.231,18.583,4.348c6.956-10.127,13.227-20.823,18.691-31.487c4.682,0.451,9.357,0.97,14.061,1.063
		c4.696,0.28,9.406,0.12,14.107,0.054c3.983,11.067,8.659,22.304,13.947,33.102c6.339-0.592,12.616-1.555,18.873-2.646
		c2.751-12.184,4.797-24.072,5.981-36.188c4.568-1.145,9.062-2.517,13.523-4.024c4.427-1.561,8.868-3.155,13.16-5.071
		c7.743,9.008,16.08,17.714,24.921,25.896c5.718-2.786,11.248-5.961,16.671-9.286c-1.716-12.236-4.205-24.22-7.434-35.893
		c3.835-2.725,7.542-5.632,11.135-8.658c3.619-3.008,7.063-6.217,10.441-9.488c10.476,5.572,21.355,10.597,32.631,15.099
		c4.253-4.73,8.29-9.628,12.145-14.681c-6.149-10.852-12.648-21.02-19.941-30.78c2.617-3.91,4.952-7.994,7.286-12.078
		c2.181-4.164,4.399-8.315,6.271-12.628c11.881,1.466,23.736,2.207,35.887,2.354c2.255-5.934,4.334-11.956,6.043-18.077
		c-9.419-7.866-19.539-15.104-29.618-21.53C396.653,251.403,397.567,246.787,398.127,242.11z M358.868,236.877
		c-2.314,17.438-7.912,34.475-16.403,49.963c-8.482,15.487-19.887,29.36-33.356,40.69c-13.482,11.345-29.024,20.11-45.725,25.824
		c-16.725,5.791-34.541,8.274-52.088,7.614c-17.574-0.687-35.02-4.676-51.207-11.707c-16.201-7.003-31.083-17.088-43.617-29.483
		c-12.556-12.377-22.741-27.066-29.934-43.125c-7.232-16.026-11.492-33.634-12.379-51.188c-0.943-17.58,1.406-35.288,6.922-52.041
		c5.49-16.753,14.116-32.523,25.325-46.154c11.188-13.658,24.887-25.177,40.206-33.815c15.3-8.599,32.281-14.532,49.814-17.021
		c17.453-2.543,35.295-1.857,52.466,2.078c17.156,3.923,33.64,11.055,48.267,20.959c14.627,9.89,27.397,22.484,37.415,36.943
		c10.045,14.458,17.311,30.754,21.536,47.964C360.222,201.615,361.197,219.431,358.868,236.877z"/>
</g>
</svg>
