<?xml version="1.0" encoding="utf-8"?>
<!-- Generator: Adobe Illustrator 16.0.0, SVG Export Plug-In . SVG Version: 6.00 Build 0)  -->
<!DOCTYPE svg PUBLIC "-//W3C//DTD SVG 1.1//EN" "http://www.w3.org/Graphics/SVG/1.1/DTD/svg11.dtd">
<svg version="1.1" id="Layer_1" xmlns="http://www.w3.org/2000/svg" xmlns:xlink="http://www.w3.org/1999/xlink" x="0px" y="0px"
	 width="238.646px" height="240.258px" viewBox="0 0 238.646 240.258" enable-background="new 0 0 238.646 240.258"
	 xml:space="preserve">
<g>
	<path fill="none" d="M183.153,79.711c-8.217-11.511-18.742-21.833-31.887-27.575c-13.03-4.922-27.512-8.865-41.663-5.787
		C95.721,48.562,81.819,53.853,71.44,63.8c-10.62,9.303-19.333,21.47-22.685,35.333c-4.344,13.514-4.344,28.484,0,41.992
		c3.352,13.863,12.064,26.037,22.685,35.333c10.379,9.947,24.28,15.238,38.171,17.451c14.149,3.078,28.63-0.864,41.655-5.786
		c13.151-5.743,23.67-16.071,31.887-27.583c7.866-12.057,11.053-26.194,12.031-40.414C194.206,105.905,191.02,91.769,183.153,79.711
		z"/>
	<path fill="#FFFFFF" d="M218.702,120.126l-1.081-10.729c7.073-2.83,14.094-6.111,21.025-9.846
		c-1.298-8.966-4.84-17.558-7.44-26.251c-7.874,0.629-15.619,1.691-23.143,3.154l-5.145-9.476c-1.604-3.237-4.376-5.673-6.512-8.549
		c4.388-6.187,8.482-12.73,12.26-19.599c-5.735-7.06-13.551-12.097-20.414-18.011c-6.156,4.578-12.21,9.813-17.73,15.072
		l-9.476-5.146c-3.027-2.028-6.734-2.448-10.086-3.707c0.343-7.556,0.248-15.264-0.3-23.066C142.052,0.751,132.709,1.246,123.729,0
		c-2.696,6.957-4.937,14.366-6.729,21.991l-10.735,1.081c-3.6,0.217-7.148,0.719-10.531,2.042
		c-3.771-6.487-7.994-12.859-12.656-19.073c-8.941,2.176-16.826,6.817-24.808,11.23c1.646,7.557,3.472,14.564,6.073,21.91
		l-8.313,6.855c-2.74,2.321-5.729,4.388-7.809,7.37c-6.672-3.402-13.653-6.467-20.903-9.17c-6.258,6.709-10.583,14.734-14.779,22.85
		c5.417,5.458,10.912,10.449,16.852,15.136l-3.205,10.296c-0.832,3.479-2.639,6.761-2.671,10.404
		c-7.415,0.758-14.907,1.959-22.437,3.618c-1.438,9.063-1.438,18.113,0,27.176c7.529,1.665,15.021,2.868,22.437,3.625
		c0.038,3.638,1.845,6.925,2.678,10.404l3.198,10.296c-5.939,4.68-11.428,9.673-16.852,15.136
		c4.204,8.108,8.521,16.141,14.779,22.844c7.263-2.703,14.238-5.769,20.909-9.171c2.074,2.982,5.069,5.049,7.811,7.37l8.318,6.862
		c-2.607,7.34-4.439,14.348-6.08,21.903c7.981,4.419,15.867,9.055,24.815,11.23c4.654-6.214,8.878-12.586,12.656-19.066
		c3.375,1.317,6.918,1.818,10.53,2.035l10.723,1.081c1.792,7.626,4.038,15.034,6.741,21.991c8.974-1.246,18.314-0.75,26.926-3.975
		c0.548-7.81,0.643-15.511,0.3-23.065c3.351-1.266,7.052-1.686,10.079-3.714l9.476-5.139c5.521,5.253,11.581,10.486,17.744,15.064
		c6.854-5.914,14.665-10.95,20.4-18.017c-3.777-6.861-7.872-13.404-12.26-19.594c2.136-2.873,4.915-5.31,6.512-8.547l5.145-9.475
		c7.523,1.462,15.269,2.524,23.143,3.147c2.601-8.688,6.143-17.279,7.44-26.247c-6.932-3.731-13.952-7.014-21.025-9.844
		L218.702,120.126z M151.267,188.123c-13.025,4.922-27.506,8.864-41.655,5.786c-13.891-2.213-27.792-7.504-38.171-17.451
		c-10.62-9.296-19.333-21.47-22.685-35.333c-4.344-13.508-4.344-28.479,0-41.992C52.107,85.27,60.82,73.103,71.44,63.8
		c10.379-9.947,24.28-15.238,38.163-17.451c14.151-3.078,28.633,0.865,41.663,5.787c13.145,5.742,23.67,16.064,31.887,27.575
		c7.866,12.058,11.053,26.194,12.031,40.415c-0.979,14.22-4.165,28.357-12.031,40.414
		C174.937,172.052,164.418,182.38,151.267,188.123z"/>
</g>
</svg>
