<?xml version="1.0" encoding="utf-8"?>
<!-- Generator: Adobe Illustrator 16.0.0, SVG Export Plug-In . SVG Version: 6.00 Build 0)  -->
<!DOCTYPE svg PUBLIC "-//W3C//DTD SVG 1.1//EN" "http://www.w3.org/Graphics/SVG/1.1/DTD/svg11.dtd">
<svg version="1.1" id="Layer_1" xmlns="http://www.w3.org/2000/svg" xmlns:xlink="http://www.w3.org/1999/xlink" x="0px" y="0px"
	 width="219.249px" height="219.248px" viewBox="0 0 219.249 219.248" enable-background="new 0 0 219.249 219.248"
	 xml:space="preserve">
<path fill="#FFFFFF" d="M214.202,126.208L93.04,5.046c-6.729-6.729-17.639-6.729-24.368,0L5.046,68.672
	c-6.729,6.73-6.729,17.639,0,24.368l121.161,121.161c6.729,6.729,17.639,6.729,24.367,0l63.627-63.627
	C220.93,143.845,220.93,132.936,214.202,126.208z M177.331,178.083c-4.299,4.3-11.269,4.3-15.568-0.001
	c-4.298-4.298-4.299-11.268,0-15.567c4.299-4.299,11.271-4.3,15.569-0.001C181.63,166.813,181.629,173.784,177.331,178.083z
	 M189.305,125.381l-64.223,64.223c-3.325,3.324-8.653,2.636-12.018-0.729L20.333,96.143c-3.365-3.365-3.49-8.13-0.166-11.455
	L84.39,20.465c3.325-3.325,8.388-3.498,11.753-0.133l92.732,92.731C192.24,116.429,192.63,122.056,189.305,125.381z"/>
</svg>
